<svg width="768" height="768" viewBox="0 0 768 768" fill="none" xmlns="http://www.w3.org/2000/svg">
<path d="M48 368V400" stroke="url(#paint0_linear_1_2)" stroke-width="20" stroke-linecap="round"/>
<path d="M720 368V400" stroke="url(#paint1_linear_1_2)" stroke-width="20" stroke-linecap="round"/>
<path d="M104 304V464H168" stroke="url(#paint2_linear_1_2)" stroke-width="20" stroke-linecap="round"/>
<rect x="156" y="260" width="144" height="296" rx="4" stroke="url(#paint3_linear_1_2)" stroke-width="20"/>
<rect x="512" y="260" width="144" height="296" rx="4" stroke="url(#paint4_linear_1_2)" stroke-width="20"/>
<rect x="272" y="352" width="224" height="40" rx="8" fill="url(#paint5_linear_1_2)"/>
<rect x="304" y="404" width="192" height="24" rx="8" fill="url(#paint6_linear_1_2)"/>
<path d="M656 304H704V464" stroke="url(#paint7_linear_1_2)" stroke-width="20" stroke-linecap="round"/>
<defs>
<linearGradient id="paint0_linear_1_2" x1="48" y1="384" x2="68" y2="384" gradientUnits="userSpaceOnUse">
<stop stop-color="#B97A2B"/>
<stop offset="1" stop-color="#F7E7B6"/>
</linearGradient>
<linearGradient id="paint1_linear_1_2" x1="720" y1="384" x2="700" y2="384" gradientUnits="userSpaceOnUse">
<stop stop-color="#B97A2B"/>
<stop offset="1" stop-color="#F7E7B6"/>
</linearGradient>
<linearGradient id="paint2_linear_1_2" x1="104" y1="384" x2="168" y2="384" gradientUnits="userSpaceOnUse">
<stop stop-color="#B97A2B"/>
<stop offset="1" stop-color="#F7E7B6"/>
</linearGradient>
<linearGradient id="paint3_linear_1_2" x1="156" y1="408" x2="300" y2="408" gradientUnits="userSpaceOnUse">
<stop stop-color="#B97A2B"/>
<stop offset="1" stop-color="#F7E7B6"/>
</linearGradient>
<linearGradient id="paint4_linear_1_2" x1="512" y1="408" x2="656" y2="408" gradientUnits="userSpaceOnUse">
<stop stop-color="#B97A2B"/>
<stop offset="1" stop-color="#F7E7B6"/>
</linearGradient>
<linearGradient id="paint5_linear_1_2" x1="272" y1="372" x2="496" y2="372" gradientUnits="userSpaceOnUse">
<stop stop-color="#B97A2B"/>
<stop offset="1" stop-color="#F7E7B6"/>
</linearGradient>
<linearGradient id="paint6_linear_1_2" x1="304" y1="416" x2="496" y2="416" gradientUnits="userSpaceOnUse">
<stop stop-color="#B97A2B"/>
<stop offset="1" stop-color="#F7E7B6"/>
</linearGradient>
<linearGradient id="paint7_linear_1_2" x1="656" y1="384" x2="704" y2="384" gradientUnits="userSpaceOnUse">
<stop stop-color="#B97A2B"/>
<stop offset="1" stop-color="#F7E7B6"/>
</linearGradient>
</defs>
</svg>
